<svg xmlns="http://www.w3.org/2000/svg" version="1.1" xmlns:xlink="http://www.w3.org/1999/xlink" xmlns:svgjs="http://svgjs.dev/svgjs" width="100%" height="100%" viewBox="0 0 1000 600"><rect width="1000" height="600" x="0" y="0" fill="#000000"/><g><circle r="166.66666666666666" cx="304.95165506998694" cy="327.1738913123464" fill="#ffffff" transform="matrix(0.9039301871395816,0,0,0.9039301871395815,0,4.257631754754414)"/><path d="M243.4178346316632 402.1738942727344L240.82121629012588 398.2487735238989L289.9456121236288 252.17389519415883L319.9576892339557 252.17389519415883L369.0820850674586 398.2487735238989L366.4854667259213 402.1738942727344L351.47942817075784 402.1738942727344L339.0700079571317 364.34176890126594L270.8332934004528 364.34176890126594L258.42387318682665 402.1738942727344L243.4178346316632 402.1738942727344ZM302.3550323372549 268.6895955757975L276.2680759757635 347.82606851962726L333.635225381821 347.82606851962726L307.5482690203296 268.6895955757975L302.3550323372549 268.6895955757975Z " fill="#000000" transform="matrix(0.9039301871395816,0,0,0.9039301871395815,0,4.257631754754414)"/><path d="M615.8212134473728 343.47824245937875L554.9516486038929 343.47824245937875L554.9516486038929 328.26085124850874L615.8212134473728 328.26085124850874L615.8212134473728 343.47824245937875ZM641.9081698088642 368.90094761722105L641.9081698088642 368.90094761722105L641.9081698088642 285.4468418496722Q641.9081698088642 252.17389519415883 675.1811164643775 252.17389519415883L675.1811164643775 252.17389519415883L726.0265267800621 252.17389519415883Q759.2994734355755 252.17389519415883 759.2994734355755 285.4468418496722L759.2994734355755 285.4468418496722L759.2994734355755 368.90094761722105Q759.2994734355755 402.1738942727344 726.0265267800621 402.1738942727344L726.0265267800621 402.1738942727344L675.1811164643775 402.1738942727344Q641.9081698088642 402.1738942727344 641.9081698088642 368.90094761722105ZM660.175077909214 283.4842814752544L660.175077909214 370.8635079916388Q660.175077909214 385.6581938910957 674.9395705721415 385.6581938910957L674.9395705721415 385.6581938910957L726.2680726722981 385.6581938910957Q741.0325653352256 385.6581938910957 741.0325653352256 370.8635079916388L741.0325653352256 370.8635079916388L741.0325653352256 283.4842814752544Q741.0325653352256 268.6895955757975 726.2680726722981 268.6895955757975L726.2680726722981 268.6895955757975L674.9395705721415 268.6895955757975Q660.175077909214 268.6895955757975 660.175077909214 283.4842814752544L660.175077909214 283.4842814752544ZM846.2559946405468 343.47824245937875L785.386429797067 343.47824245937875L785.386429797067 328.26085124850874L846.2559946405468 328.26085124850874L846.2559946405468 343.47824245937875ZM877.777733577349 402.1738942727344L867.9951249417898 394.56519866729934L867.9951249417898 385.6581938910957L934.9637235642294 385.6581938910957Q949.7282162271567 385.6581938910957 949.7282162271567 370.8635079916388L949.7282162271567 370.8635079916388L949.7282162271567 353.26085109493806Q949.7282162271567 340.8816241178414 938.647298420829 338.70771108771714L938.647298420829 338.70771108771714L891.9081682731569 329.1364551078643Q867.9951249417898 324.3357304996732 867.9951249417898 297.16181762311965L867.9951249417898 297.16181762311965L867.9951249417898 285.4468418496722Q867.9951249417898 252.17389519415883 901.2680715973031 252.17389519415883L901.2680715973031 252.17389519415883L953.8646896316989 252.17389519415883L963.6472982672581 259.78259079959383L963.6472982672581 268.6895955757975L901.0265257050669 268.6895955757975Q886.2620330421396 268.6895955757975 886.2620330421396 283.4842814752544L886.2620330421396 283.4842814752544L886.2620330421396 298.24877413818183Q886.2620330421396 310.658194351808 897.3429508484676 312.83210738193225L897.3429508484676 312.83210738193225L944.0820809961397 322.16181746954896Q967.9951243275068 326.96254207774007 967.9951243275068 354.34780761000013L967.9951243275068 354.34780761000013L967.9951243275068 368.90094761722105Q967.9951243275068 402.1738942727344 934.7221776719934 402.1738942727344L934.7221776719934 402.1738942727344L877.777733577349 402.1738942727344Z " fill="#ffffff" transform="matrix(0.9039301871395816,0,0,0.9039301871395815,0,4.257631754754414)"/></g></svg>